<svg id="Слой_1" data-name="Слой 1" xmlns="http://www.w3.org/2000/svg" xmlns:xlink="http://www.w3.org/1999/xlink" viewBox="0 0 41.8 37.02"><defs><clipPath id="clip-path" transform="translate(1.88 2.75)"><polygon points="6.25 34.52 34.41 0.12 44.64 3.8 18.75 35.46 6.25 34.52" style="fill:none"/></clipPath><clipPath id="clip-path-2" transform="translate(1.88 2.75)"><polygon points="16.44 39.26 44.6 4.86 50.56 4.86 50.56 40.42 16.44 39.26" style="fill:none"/></clipPath><clipPath id="clip-path-3" transform="translate(1.88 2.75)"><polygon points="34.13 -0.56 5.97 33.84 0.01 33.84 0.01 -1.73 34.13 -0.56" style="fill:none"/></clipPath></defs><title>tpverstak</title><g style="clip-path:url(#clip-path)"><path d="M28.64,7.82c6.35,0,9.41,8.25,4.41,11.8a6.54,6.54,0,0,1,3.88,5.9A8.13,8.13,0,0,1,28.56,34h-12V7.82Zm-5.79,9.45h4.82c2.2,0,2.13-3.66.08-3.66H22.85Zm0,10.64h5.71c2.69,0,2.69-4.74,0-4.74H22.85Z" transform="translate(1.88 2.75)" style="fill:#17979e"/><path d="M8.68,27.25v-22H.09V-1H22.77V5.22H15.06v22Z" transform="translate(1.88 2.75)" style="fill:#17979e"/><path d="M27.8,7c6.35,0,9.41,8.25,4.41,11.8a6.54,6.54,0,0,1,3.88,5.9,8.13,8.13,0,0,1-8.36,8.44h-12V7ZM22,16.48h4.82c2.2,0,2.13-3.66.08-3.66H22Zm0,10.64h5.71c2.69,0,2.69-4.74,0-4.74H22Z" transform="translate(1.88 2.75)" style="fill:red"/><path d="M7.88,27.94v-22H-.7V-.28H22V5.91H14.26v22Z" transform="translate(1.88 2.75)" style="fill:#f00b0e"/><path d="M28.2,7.44c6.35,0,9.41,8.25,4.41,11.8a6.54,6.54,0,0,1,3.88,5.9,8.13,8.13,0,0,1-8.36,8.44h-12V7.44Zm-5.79,9.45h4.82c2.2,0,2.13-3.66.08-3.66H22.41Zm0,10.64h5.71c2.69,0,2.69-4.74,0-4.74H22.41Z" transform="translate(1.88 2.75)" style="fill:#fff"/><path d="M8.28,27.59V6.31H-.3V.12H22.38V6.31H14.67V27.59Z" transform="translate(1.88 2.75)" style="fill:#fff"/></g><g style="clip-path:url(#clip-path-2)"><path d="M31.63,5.36C38,5.36,41,13.61,36,17.16a6.54,6.54,0,0,1,3.88,5.9,8.13,8.13,0,0,1-8.36,8.44h-12V5.36Zm-5.79,9.45h4.82c2.2,0,2.13-3.66.08-3.66H25.84Zm0,10.64h5.71c2.69,0,2.69-4.74,0-4.74H25.84Z" transform="translate(1.88 2.75)" style="fill:#17979e"/><path d="M11.71,31.5V4.23H3.13V-2H25.81V4.23H18.09V31.5Z" transform="translate(1.88 2.75)" style="fill:#17979e"/><path d="M30.79,4.57c6.35,0,9.41,8.25,4.41,11.8a6.54,6.54,0,0,1,3.88,5.9,8.13,8.13,0,0,1-8.36,8.44h-12V4.57ZM25,14h4.82c2.2,0,2.13-3.66.08-3.66H25Zm0,10.64h5.71c2.69,0,2.69-4.74,0-4.74H25Z" transform="translate(1.88 2.75)" style="fill:red"/><path d="M10.87,30.71V3.44H2.29V-2.75H25V3.44H17.25V30.71Z" transform="translate(1.88 2.75)" style="fill:#f00b0e"/><path d="M31.19,5c6.35,0,9.41,8.25,4.41,11.8a6.54,6.54,0,0,1,3.88,5.9,8.13,8.13,0,0,1-8.36,8.44h-12V5ZM25.4,14.42h4.82c2.2,0,2.13-3.66.08-3.66H25.4Zm0,10.64h5.71c2.69,0,2.69-4.74,0-4.74H25.4Z" transform="translate(1.88 2.75)" style="fill:#fff"/><path d="M11.27,31.11V3.84H2.69V-2.35H25.37V3.84H17.65V31.11Z" transform="translate(1.88 2.75)" style="fill:#fff"/></g><g style="clip-path:url(#clip-path-3)"><path d="M27.46,8.13c6.35,0,9.41,8.25,4.41,11.8a6.54,6.54,0,0,1,3.88,5.9,8.13,8.13,0,0,1-8.36,8.44h-12V8.13Zm-5.79,9.45h4.82c2.2,0,2.13-3.66.08-3.66H21.68Zm0,10.64h5.71c2.69,0,2.69-4.74,0-4.74H21.68Z" transform="translate(1.88 2.75)" style="fill:#17979e"/><path d="M7.54,34.28V7H-1V.82H21.64V7H13.93V34.28Z" transform="translate(1.88 2.75)" style="fill:#17979e"/><path d="M26.62,7.34C33,7.34,36,15.6,31,19.14A6.54,6.54,0,0,1,34.91,25a8.13,8.13,0,0,1-8.36,8.44h-12V7.34Zm-5.79,9.45h4.82c2.2,0,2.13-3.66.08-3.66H20.83Zm0,10.64h5.71c2.69,0,2.69-4.74,0-4.74H20.83Z" transform="translate(1.88 2.75)" style="fill:red"/><path d="M6.7,33.48V6.22H-1.88V0H20.8V6.22H13.09V33.48Z" transform="translate(1.88 2.75)" style="fill:red"/><path d="M27,7.74c6.35,0,9.41,8.25,4.41,11.8a6.54,6.54,0,0,1,3.88,5.9A8.13,8.13,0,0,1,27,33.89h-12V7.74Zm-5.79,9.45h4.82c2.2,0,2.13-3.66.08-3.66H21.24Zm0,10.64H27c2.69,0,2.69-4.74,0-4.74H21.24Z" transform="translate(1.88 2.75)" style="fill:#fff"/><path d="M7.1,33.89V6.62H-1.48V.43H21.2V6.62H13.49V33.89Z" transform="translate(1.88 2.75)" style="fill:#fff"/></g></svg>